<?xml version="1.0" encoding="UTF-8" standalone="no"?>
<!DOCTYPE svg PUBLIC "-//W3C//DTD SVG 1.1//EN" "http://www.w3.org/Graphics/SVG/1.1/DTD/svg11.dtd">
<svg width="100%" height="100%" viewBox="0 0 212 241" version="1.1" xmlns="http://www.w3.org/2000/svg" xmlns:xlink="http://www.w3.org/1999/xlink" xml:space="preserve" xmlns:serif="http://www.serif.com/" style="fill-rule:evenodd;clip-rule:evenodd;stroke-linejoin:round;stroke-miterlimit:1.41421;">
    <g transform="matrix(1,0,0,1,-317.778,-127.596)">
        <g>
            <path d="M409.333,365.552C409.325,365.552 409.317,365.549 409.309,365.543C409.317,365.546 409.325,365.549 409.333,365.552Z" style="fill:url(#_Linear1);"/>
            <path d="M409.412,365.564C409.386,365.564 409.36,365.56 409.333,365.552C411.697,365.557 425.98,129.289 425.98,129.289C425.98,129.289 415.746,365.568 409.412,365.564ZM409.309,365.543C408.727,365.303 408.159,364.715 407.605,363.83C408.164,364.539 408.732,365.114 409.309,365.543Z" style="fill:url(#_Linear2);"/>
            <path d="M526.49,240.936C533.844,232.051 527.525,218.617 515.994,218.617L445.77,218.617C440.439,218.617 441.221,217.042 441.233,211.712L441.413,138.575C441.437,128.776 429.187,124.311 422.902,131.829L320.956,253.743C313.586,262.557 319.854,275.969 331.343,275.969L401.094,275.969C406.43,275.969 405.648,280.29 405.658,285.626L405.798,357.717C405.817,367.511 418.081,371.917 424.326,364.371L526.49,240.936Z" style="fill:url(#_Linear3);"/>
            <path d="M515.994,218.617L445.77,218.617C443.371,218.617 442.21,218.298 441.659,217.461C424.08,229.321 384.322,256.142 384.322,256.142L393.035,256.142C393.035,256.142 397.23,256.287 404.252,256.204C430.154,255.897 494.516,252.481 528.643,227.178C526.469,220.229 517.198,218.617 515.994,218.617Z" style="fill:rgb(255,216,33);fill-rule:nonzero;"/>
            <path d="M441.273,194.928C439.438,195.276 437.607,195.626 435.789,195.971C437.607,195.626 439.44,195.276 441.273,194.928Z" style="fill:url(#_Linear4);"/>
            <path d="M379.408,256.142C387.411,250.551 417.178,206.987 427.671,175.514C433.801,157.126 441.666,133.78 434.193,128.614C430.92,126.35 425.956,128.176 422.902,131.829L320.956,253.743C313.586,262.557 319.854,275.969 331.343,275.969C331.343,275.969 351.018,275.969 379.408,256.142Z" style="fill:url(#_Linear5);"/>
            <path d="M429.981,127.675C427.523,127.994 425.027,129.276 422.902,131.829C424.81,129.548 427.461,127.979 429.981,127.675Z" style="fill:url(#_Linear6);"/>
            <path d="M441.233,211.712L441.413,138.575C441.43,131.686 435.814,126.923 429.99,127.674C431.502,127.492 432.966,127.764 434.193,128.614C441.666,133.78 433.801,157.126 427.671,175.514C418.857,201.947 396.457,236.897 384.764,250.731L384.322,256.142L441.666,217.458C440.99,216.436 441.225,214.643 441.233,211.712Z" style="fill:url(#_Linear7);"/>
            <path d="M384.311,256.142C394.553,245.93 419.146,206.48 428.807,177.501C434.368,160.819 440.422,138.421 435.917,130.551C440.19,138.157 433.221,158.866 427.671,175.514C419.628,199.637 390.404,250.826 374.986,259.112L374.982,259.115C374.982,259.115 486.383,265.283 528.643,227.178C492.434,254.024 427.101,256.142 384.311,256.142Z" style="fill:url(#_Linear8);"/>
            <path d="M451.78,307.53C456.974,294.284 470.804,267.529 449.952,271.183C429.295,274.803 401.094,275.969 401.094,275.969C406.43,275.969 405.648,280.29 405.658,285.626L405.798,357.717C405.814,366.553 415.785,370.968 422.324,366.215C430.934,355.345 443.596,328.396 451.78,307.53Z" style="fill:url(#_Linear9);"/>
            <path d="M454.162,270.881C468.695,271.604 456.572,295.309 451.78,307.53C443.596,328.396 430.934,355.345 422.324,366.215L422.252,366.293C422.992,365.767 423.691,365.136 424.326,364.371L429.488,358.136C437.424,345.011 449.446,321.765 456.029,304.983C460.998,292.311 471.521,269.622 454.162,270.881Z" style="fill:url(#_Linear10);"/>
        </g>
    </g>
    <defs>
        <linearGradient id="_Linear1" x1="0" y1="0" x2="1" y2="0" gradientUnits="userSpaceOnUse" gradientTransform="matrix(-284.835,237.362,-237.362,-284.835,426.32,234.926)"><stop offset="0" style="stop-color:rgb(182,182,182);stop-opacity:1"/><stop offset="1" style="stop-color:rgb(217,217,217);stop-opacity:1"/></linearGradient>
        <linearGradient id="_Linear2" x1="0" y1="0" x2="1" y2="0" gradientUnits="userSpaceOnUse" gradientTransform="matrix(-284.835,237.362,-237.362,-284.835,426.32,234.926)"><stop offset="0" style="stop-color:rgb(180,180,180);stop-opacity:1"/><stop offset="1" style="stop-color:rgb(215,215,215);stop-opacity:1"/></linearGradient>
        <linearGradient id="_Linear3" x1="0" y1="0" x2="1" y2="0" gradientUnits="userSpaceOnUse" gradientTransform="matrix(211.868,0,0,211.868,317.778,248.118)"><stop offset="0" style="stop-color:rgb(240,89,35);stop-opacity:1"/><stop offset="0.7" style="stop-color:rgb(254,243,1);stop-opacity:1"/><stop offset="0.8" style="stop-color:rgb(254,238,12);stop-opacity:1"/><stop offset="1" style="stop-color:rgb(251,176,59);stop-opacity:1"/></linearGradient>
        <linearGradient id="_Linear4" x1="0" y1="0" x2="1" y2="0" gradientUnits="userSpaceOnUse" gradientTransform="matrix(5.48438,0,0,5.48438,435.789,195.45)"><stop offset="0" style="stop-color:rgb(255,255,0);stop-opacity:1"/><stop offset="0.1" style="stop-color:rgb(255,255,60);stop-opacity:1"/><stop offset="0.2" style="stop-color:rgb(255,255,138);stop-opacity:1"/><stop offset="0.3" style="stop-color:rgb(255,255,196);stop-opacity:1"/><stop offset="0.4" style="stop-color:rgb(255,255,233);stop-opacity:1"/><stop offset="0.6" style="stop-color:rgb(255,255,253);stop-opacity:1"/><stop offset="0.7" style="stop-color:rgb(255,255,231);stop-opacity:1"/><stop offset="0.8" style="stop-color:rgb(255,255,182);stop-opacity:1"/><stop offset="0.9" style="stop-color:rgb(255,255,105);stop-opacity:1"/><stop offset="1" style="stop-color:rgb(255,255,0);stop-opacity:1"/></linearGradient>
        <linearGradient id="_Linear5" x1="0" y1="0" x2="1" y2="0" gradientUnits="userSpaceOnUse" gradientTransform="matrix(-265.732,21.2926,-21.2926,-265.732,440.318,197.057)"><stop offset="0" style="stop-color:rgb(240,89,35);stop-opacity:1"/><stop offset="0.15" style="stop-color:rgb(249,164,55);stop-opacity:1"/><stop offset="0.5" style="stop-color:rgb(251,176,59);stop-opacity:1"/><stop offset="0.65" style="stop-color:rgb(249,164,55);stop-opacity:1"/><stop offset="1" style="stop-color:rgb(251,176,59);stop-opacity:1"/></linearGradient>
        <linearGradient id="_Linear6" x1="0" y1="0" x2="1" y2="0" gradientUnits="userSpaceOnUse" gradientTransform="matrix(-0.241289,3.61932,-3.61932,-0.241289,426.532,128.409)"><stop offset="0" style="stop-color:rgb(255,216,33);stop-opacity:1"/><stop offset="1" style="stop-color:rgb(246,156,24);stop-opacity:1"/></linearGradient>
        <linearGradient id="_Linear7" x1="0" y1="0" x2="1" y2="0" gradientUnits="userSpaceOnUse" gradientTransform="matrix(-6.86908,103.036,-103.036,-6.86908,418.503,154.177)"><stop offset="0" style="stop-color:rgb(255,216,33);stop-opacity:1"/><stop offset="1" style="stop-color:rgb(246,156,24);stop-opacity:1"/></linearGradient>
        <linearGradient id="_Linear8" x1="0" y1="0" x2="1" y2="0" gradientUnits="userSpaceOnUse" gradientTransform="matrix(153.66,0,0,153.66,374.982,195.018)"><stop offset="0" style="stop-color:rgb(255,255,0);stop-opacity:1"/><stop offset="0.1" style="stop-color:rgb(255,255,60);stop-opacity:1"/><stop offset="0.2" style="stop-color:rgb(255,255,138);stop-opacity:1"/><stop offset="0.3" style="stop-color:rgb(255,255,196);stop-opacity:1"/><stop offset="0.4" style="stop-color:rgb(255,255,233);stop-opacity:1"/><stop offset="0.6" style="stop-color:rgb(255,255,253);stop-opacity:1"/><stop offset="0.7" style="stop-color:rgb(255,255,231);stop-opacity:1"/><stop offset="0.8" style="stop-color:rgb(255,255,182);stop-opacity:1"/><stop offset="0.9" style="stop-color:rgb(255,255,105);stop-opacity:1"/><stop offset="1" style="stop-color:rgb(255,255,0);stop-opacity:1"/></linearGradient>
        <linearGradient id="_Linear9" x1="0" y1="0" x2="1" y2="0" gradientUnits="userSpaceOnUse" gradientTransform="matrix(-9.65333,58.4846,-58.4846,-9.65333,431.282,276.992)"><stop offset="0" style="stop-color:rgb(240,89,35);stop-opacity:1"/><stop offset="0.9" style="stop-color:rgb(249,165,48);stop-opacity:1"/><stop offset="1" style="stop-color:rgb(251,176,59);stop-opacity:1"/></linearGradient>
        <linearGradient id="_Linear10" x1="0" y1="0" x2="1" y2="0" gradientUnits="userSpaceOnUse" gradientTransform="matrix(-18.6184,88.1274,-88.1274,-18.6184,453.933,272.228)"><stop offset="0" style="stop-color:rgb(246,147,29);stop-opacity:1"/><stop offset="1" style="stop-color:rgb(255,255,0);stop-opacity:1"/></linearGradient>
    </defs>
</svg>
