<?xml version="1.0" standalone="no"?>
<!DOCTYPE svg PUBLIC "-//W3C//DTD SVG 20010904//EN"
 "http://www.w3.org/TR/2001/REC-SVG-20010904/DTD/svg10.dtd">
<svg version="1.0" xmlns="http://www.w3.org/2000/svg"
 width="600.000000pt" height="600.000000pt" viewBox="0 0 600.000000 600.000000"
 preserveAspectRatio="xMidYMid meet">
<metadata>
Created by potrace 1.11, written by Peter Selinger 2001-2013
</metadata>
<g transform="translate(0.000000,600.000000) scale(0.100000,-0.100000)"
fill="#000000" stroke="none">
<path d="M3102 5972 c-68 -25 -88 -44 -304 -302 -99 -118 -197 -235 -218 -260
-21 -25 -123 -146 -226 -270 -387 -463 -650 -777 -704 -840 -30 -36 -74 -88
-96 -115 -148 -178 -581 -694 -832 -993 -163 -195 -310 -379 -327 -410 -27
-50 -30 -65 -30 -146 0 -76 4 -99 25 -141 36 -75 113 -147 185 -175 l60 -23
920 -1 c1032 -1 963 4 985 -73 7 -26 11 -366 13 -1033 l2 -995 23 -47 c74
-151 287 -196 403 -87 24 23 101 113 254 299 87 106 103 125 141 169 16 20 84
101 149 181 66 80 127 154 136 165 26 30 186 224 228 274 20 25 52 63 71 86
19 23 51 61 70 85 35 44 90 111 100 120 3 3 21 25 41 50 20 25 45 55 55 67 11
11 35 41 54 64 47 58 269 327 296 359 12 14 103 124 203 245 100 121 203 245
229 276 26 30 63 75 82 99 19 24 47 58 61 75 205 239 437 530 457 575 34 71
38 162 11 246 -34 110 -136 198 -259 223 -38 8 -332 12 -973 14 -906 2 -919 2
-933 22 -13 17 -15 156 -12 1020 l2 1000 -25 55 c-61 131 -188 188 -317 142z"/>
</g>
</svg>
